Coordinates
version=1
nRows=19
nColumns=24
inDegrees=yes

Units are S.I. units (second, meters, Newtons, ...)
Angles are in degrees.

endheader
time	pelvis_tilt	pelvis_list	pelvis_rotation	pelvis_tx	pelvis_ty	pelvis_tz	hip_flexion_r	hip_adduction_r	hip_rotation_r	knee_angle_r	ankle_angle_r	subtalar_angle_r	mtp_angle_r	hip_flexion_l	hip_adduction_l	hip_rotation_l	knee_angle_l	ankle_angle_l	subtalar_angle_l	mtp_angle_l	lumbar_extension	lumbar_bending	lumbar_rotation
      4.96000000	     11.70473263	      5.25786368	      4.90074343	      0.55713688	      0.94183707	     -0.29699864	     -1.99923553	     -7.65027009	     -8.11836090	    -63.94743485	     12.31084808	     -3.86955155	      0.00000000	    -11.20367021	      7.28000397	     15.34399543	     -7.23118891	     13.68987756	     -6.37329036	      0.00000000	    -26.55341091	     -4.39213381	     -1.45109254
      4.96500000	     11.70304112	      4.97105021	      5.17553916	      0.56273624	      0.94239508	     -0.29747421	     -1.19473620	     -7.35249198	     -8.42087837	    -63.70472516	     13.02774664	     -4.07892383	      0.00000000	    -11.70917430	      6.85659087	     15.37661050	     -6.90071851	     13.88249767	     -6.11284051	      0.00000000	    -26.58284237	     -3.91003346	     -1.82749889
      4.97000000	     11.69977458	      4.68856472	      5.41631721	      0.56834631	      0.94291317	     -0.29790419	     -0.39731790	     -7.06443151	     -8.68922109	    -63.38361207	     13.72410182	     -4.19238855	      0.00000000	    -12.21444786	      6.44179752	     15.38098728	     -6.55538488	     14.01090256	     -5.90975624	      0.00000000	    -26.60715201	     -3.44806641	     -2.15960395
      4.97500000	     11.69518341	      4.41635263	      5.66637322	      0.57394060	      0.94337762	     -0.29832217	      0.38282643	     -6.79004622	     -8.97356511	    -62.98482540	     14.38853135	     -4.27382071	      0.00000000	    -12.70805541	      6.03411114	     15.37752134	     -6.22601960	     14.14787000	     -5.68676392	      0.00000000	    -26.63134459	     -2.99485728	     -2.50142287
      4.98000000	     11.70566277	      4.17385653	      5.96155197	      0.57952835	      0.94382181	     -0.29874463	      1.11172471	     -6.54628284	     -9.31085185	    -62.49914252	     15.01034649	     -4.34723892	      0.00000000	    -13.21268747	      5.64051127	     15.40556043	     -5.90750448	     14.26637844	     -5.43097729	      0.00000000	    -26.67739962	     -2.56137885	     -2.92555908
      4.98500000	     11.69368946	      3.91917845	      6.16511010	      0.58507160	      0.94416457	     -0.29911347	      1.87928247	     -6.30184304	     -9.55248955	    -61.95998602	     15.63768430	     -4.30893550	      0.00000000	    -13.67866470	      5.26597954	     15.35248271	     -5.60387148	     14.37297222	     -5.27288921	      0.00000000	    -26.69934418	     -2.14664418	     -3.19651925
      4.99000000	     11.68495023	      3.68825115	      6.42858155	      0.59063290	      0.94446295	     -0.29950911	      2.60089057	     -6.08305717	     -9.86103894	    -61.33291078	     16.21973948	     -4.28748727	      0.00000000	    -14.13965806	      4.89846667	     15.32119925	     -5.32410721	     14.52810111	     -5.03394691	      0.00000000	    -26.72468944	     -1.73575387	     -3.54980012
      4.99500000	     11.68601723	      3.48205405	      6.69879720	      0.59618256	      0.94472057	     -0.29989045	      3.28586540	     -5.89370122	    -10.17909992	    -60.62984169	     16.77367151	     -4.22952658	      0.00000000	    -14.60565203	      4.55247132	     15.29901293	     -5.05496623	     14.67507156	     -4.81519114	      0.00000000	    -26.76027010	     -1.35031635	     -3.92018634
      5.00000000	     11.70801467	      3.30385215	      6.99256568	      0.60176729	      0.94494820	     -0.30025191	      3.91234031	     -5.73130285	    -10.51993654	    -59.84838476	     17.28888680	     -4.16060423	      0.00000000	    -15.09626682	      4.22066043	     15.32055826	     -4.78828317	     14.83589822	     -4.58342587	      0.00000000	    -26.81527553	     -0.99109771	     -4.34090126
      5.00500000	     11.73666465	      3.13749192	      7.27855292	      0.60730095	      0.94513658	     -0.30061679	      4.51166720	     -5.58575263	    -10.85005032	    -58.99420657	     17.79589435	     -4.04169625	      0.00000000	    -15.57835244	      3.90623000	     15.31042139	     -4.54655169	     14.96471536	     -4.38564908	      0.00000000	    -26.89183771	     -0.63614879	     -4.73856188
      5.01000000	     11.75689189	      2.98626239	      7.53358245	      0.61282886	      0.94525721	     -0.30092842	      5.10433716	     -5.45825146	    -11.14522920	    -58.07784090	     18.27811956	     -3.87724036	      0.00000000	    -16.04429522	      3.61617210	     15.28326128	     -4.32309101	     15.09583964	     -4.20659857	      0.00000000	    -26.96118646	     -0.31928075	     -5.10032303
      5.01500000	     11.77473539	      2.85299328	      7.79220005	      0.61836956	      0.94533398	     -0.30119088	      5.66697010	     -5.34494413	    -11.43200610	    -57.08256484	     18.74060986	     -3.67820430	      0.00000000	    -16.49860781	      3.34159941	     15.24650719	     -4.12283661	     15.23211783	     -4.03266496	      0.00000000	    -27.02766780	     -0.03399466	     -5.46366044
      5.02000000	     11.77834870	      2.73931659	      8.02501086	      0.62389575	      0.94532968	     -0.30147134	      6.22816401	     -5.26458415	    -11.69545311	    -56.03529435	     19.18211183	     -3.42973242	      0.00000000	    -16.93753884	      3.10063403	     15.17644735	     -3.92420041	     15.36022964	     -3.88628078	      0.00000000	    -27.08435517	      0.24287130	     -5.79564229
      5.02500000	     11.84284121	      2.65223052	      8.34231865	      0.62940856	      0.94538597	     -0.30169822	      6.66353586	     -5.18538374	    -12.00933748	    -54.88064740	     19.58620359	     -3.21796333	      0.00000000	    -17.42638302	      2.83898574	     15.21491817	     -3.75715436	     15.48852948	     -3.67056928	      0.00000000	    -27.21842907	      0.50319191	     -6.26539476
      5.03000000	     11.91036159	      2.57781799	      8.61896085	      0.63497225	      0.94538060	     -0.30194258	      7.07042696	     -5.13223351	    -12.30222158	    -53.66692854	     19.97295301	     -2.93014492	      0.00000000	    -17.92647092	      2.60683935	     15.19374045	     -3.58461604	     15.62067708	     -3.53025146	      0.00000000	    -27.34556189	      0.74545842	     -6.66268919
      5.03500000	     11.86614376	      2.52797085	      8.73887129	      0.64051459	      0.94517210	     -0.30196930	      7.62383982	     -5.09643019	    -12.38858227	    -52.44411459	     20.35419466	     -2.58201107	      0.00000000	    -18.31028706	      2.46482656	     15.06576207	     -3.41767851	     15.69536685	     -3.48259036	      0.00000000	    -27.36671955	      0.87153925	     -6.90461126
      5.04000000	     11.90607208	      2.47690887	      9.04648178	      0.64604656	      0.94503685	     -0.30218409	      7.99061949	     -5.06411826	    -12.66985114	    -51.08759349	     20.74827892	     -2.22123822	      0.00000000	    -18.74645134	      2.24802708	     15.08634020	     -3.32331120	     15.93583089	     -3.25298416	      0.00000000	    -27.47375873	      1.09704417	     -7.28358900
      5.04500000	     11.93981974	      2.44713244	      9.27587177	      0.65161966	      0.94486098	     -0.30227163	      8.34787472	     -5.03925937	    -12.85158171	    -49.67809120	     21.09813827	     -1.82240993	      0.00000000	    -19.19284687	      2.07291889	     15.06286778	     -3.20520331	     16.05837078	     -3.13688722	      0.00000000	    -27.58073756	      1.25467419	     -7.63808425
      5.05000000	     12.06843602	      2.44549799	      9.59299742	      0.65717356	      0.94478200	     -0.30240066	      8.53577466	     -5.03307366	    -13.12845844	    -48.16765079	     21.37759662	     -1.48433852	      0.00000000	    -19.73211165	      1.87447411	     15.07992149	     -3.10047448	     16.18581530	     -2.99256885	      0.00000000	    -27.80047447	      1.43359577	     -8.11944647
